<?xml version="1.0" encoding="UTF-8"?>
<!-- Created with Inkscape (http://www.inkscape.org/) -->
<svg id="svg3734" width="327" height="327" version="1.1" viewBox="0 0 327 327" xmlns="http://www.w3.org/2000/svg" xmlns:cc="http://creativecommons.org/ns#" xmlns:dc="http://purl.org/dc/elements/1.1/" xmlns:rdf="http://www.w3.org/1999/02/22-rdf-syntax-ns#">
<metadata id="metadata16">
<rdf:RDF>
<cc:Work rdf:about="">
<dc:format>image/svg+xml</dc:format>
<dc:type rdf:resource="http://purl.org/dc/dcmitype/StillImage"/>
<dc:title/>
</cc:Work>
</rdf:RDF>
</metadata>
<style id="style2">path{
         fill: white;
      }</style>
<g id="sheep" fill="#0a0754">
<path id="path3823" d="m54.32 291.62c-0.75404-0.19705-0.70569-0.71758 0.22098-2.3791 3.6717-6.5834 15.934-35.928 19.019-45.514 0.8578-2.6654 2.9308-8.6622 4.6067-13.326 4.2465-11.818 4.575-12.954 7.9232-27.41l2.9763-12.85-1.1595-2.3503c-3.698-7.4961-5.6547-23.973-3.8862-32.724 0.24601-1.2173 1.6844-5.9693 3.1965-10.56 5.9677-18.118 9.5814-25.955 14.459-31.356 1.0142-1.1231 2.8978-3.2081 4.1858-4.6333l2.3417-2.5913-0.10421-13.523-0.10422-13.523-1.1271-2.8911c-2.3578-6.0479-6.4066-10.699-13.268-15.24-4.9821-3.2978-6.3901-4.0261-10.652-5.5095-6.5038-2.2638-14.952-3.3003-24.228-2.9725-7.4982 0.26503-11.131 0.72097-15.993 2.007-10.667 2.8218-11.881 3.5879-13.663 8.6233-0.8673 2.4507-1.0325 3.4161-1.1469 6.703-0.15227 4.3745 0.23326 6.6835 1.87 11.2 0.76537 2.112 1.349 3.165 2.1886 3.9486 4.7517 4.4349 19.65 11.653 27.137 13.147 2.944 0.58771 9.4357 1.304 11.818 1.304 3.7431 0 4.9324 0.90867 3.2304 2.4681-2.0821 1.9076-5.5569 2.8261-10.48 2.77-7.0106-0.0799-23.287-3.0386-28.866-5.2472-9.3693-3.7091-17.291-9.1919-23.586-16.324-5.1433-5.8273-6.9091-9.6699-6.9052-15.027 0.0035312-4.8856 1.3764-8.0701 5.5978-12.985 4.0415-4.7051 13.424-12.833 20.71-17.941 4.6416-3.2538 5.562-3.6834 8.5695-4.0003 4.0326-0.42497 29.421 0.50676 36.423 1.3367 2.6107 0.30944 13.053 3.596 22.119 6.9617 3.7609 1.3962 4.8143 1.6783 4.9332 1.3212 0.0832-0.24974 0.94329-2.0363 1.9113-3.9702 1.4897-2.976 2.1574-3.9111 4.3468-6.0867 4.9919-4.9607 11.125-6.6929 17.472-4.9341 3.1059 0.8607 5.1263 1.9754 7.4208 4.0942 3.5398 3.2687 5.6553 9.32 5.2805 15.105-0.22669 3.499-0.67826 4.5437-2.8455 6.5826-2.7314 2.5697-4.0686 3.1469-7.3012 3.1515-2.3291 0.0033-2.9795-0.12358-4.5253-0.88271-2.2046-1.0826-4.2762-3.2565-4.7382-4.972-0.86049-3.1956 1.9493-9.317 4.8787-10.628 1.4426-0.64585 2.4054-0.4556 3.6648 0.7241 0.63349 0.59342 0.72 0.60825 0.72 0.1234 0-0.80277-1.3801-1.9533-2.8833-2.4037-1.3156-0.39415-3.5217-0.24446-5.1167 0.34716-2.208 0.81902-3.7724 3.8743-3.3853 6.6118 0.62845 4.4451 0.63245 4.3815-0.4159 6.6218l-0.99906 2.1349 1.479 2.3731c1.7632 2.8289 4.4268 8.7009 5.8581 12.914 2.004 5.8991 4.8231 18.348 4.8231 21.299 0 1.2968 1.0075 1.208 3.9291-0.34622 3.5932-1.9115 6.9988-3.1378 12.871-4.6347 10.09-2.5721 15.812-3.115 36-3.4161 15.773-0.23525 25.356 0.24374 30.238 1.5115 16.089 4.1775 38.896 14.942 53.192 25.107 2.2279 1.584 4.8068 3.5706 5.731 4.4147 3.4449 3.1463 8.7837 10.379 13.866 18.785 3.0928 5.1154 8.0346 14.839 8.8397 17.393 0.31326 0.99376 0.68312 1.8068 0.82191 1.8068s0.55312-1.044 0.92074-2.32c1.1223-3.8957 2.1625-6.3844 3.5653-8.53 2.8206-4.3144 6.7658-7.7231 12.105-10.459 2.1099-1.081 2.6708-1.2296 4.64-1.2289 7.8487 3e-3 10.757 4.7429 6.116 9.9684-0.74685 0.84095-1.9174 2.465-2.6013 3.609-1.4613 2.4445-4.2385 6.3452-8.3159 11.68-3.9796 5.2068-6.2944 8.5863-7.4524 10.88-0.58521 1.1592-1.5434 2.3953-2.4182 3.1195-1.1813 0.97797-1.4869 1.4527-1.6545 2.5707-0.11309 0.75418-0.24234 5.8304-0.2872 11.281l-0.0816 9.9093-1.3271 6.24c-0.72992 3.432-2.13 9.552-3.1112 13.6-0.98124 4.048-2.6399 11.012-3.686 15.476-2.3362 9.9694-2.3481 10.017-5.2466 20.844-1.3232 4.9425-2.5765 10.413-2.8592 12.48-0.27682 2.024-1.221 7.856-2.0982 12.96-0.87722 5.104-1.682 10.504-1.7885 12-0.31254 4.3923-0.70322 5.9824-1.5239 6.2024-0.38731 0.10385-5.3927 0.19079-11.123 0.19319-8.3279 3e-3 -10.539-0.0837-11.019-0.43454-0.56312-0.41176-0.4462-0.60721 1.8908-3.1608 3.4655-3.7866 6.031-7.287 7.6812-10.48 2.4215-4.6859 2.3538-4.3415 5.6267-28.622 0.88535-6.568 1.0253-8.7439 1.3274-20.64 0.18575-7.3139 0.26719-17.834 0.18097-23.378l-0.15676-10.08-1.2984-6.431c-2.11-10.45-4.2871-16.334-8.2424-22.275-2.7358-4.1094-6.6552-8.1916-10.707-11.151-1.7939-1.3104-4.7268-3.709-6.5176-5.3302-11.531-10.439-18.333-14.939-28.827-19.069-6.612-2.6024-15.452-5.5752-17.28-5.8113-3.3529-0.43292-21.545-0.71232-31.36-0.48162l-10.24 0.2407-3.84 1.2906c-5.1272 1.7232-7.7857 2.95-10.939 5.0479-7.7231 5.1388-11.316 11.741-12.219 22.456-0.76322 9.0524 1.0499 15.248 5.8758 20.078 3.2422 3.245 8.0992 6.344 13.442 8.5767 10.883 4.5478 32.335 10.816 46.098 13.469 8.6127 1.6604 17.454 1.4954 57.4-1.0712 6.0826-0.39082 9.3885-0.48335 9.9742-0.27919 0.58674 0.20454 1.0412 0.7184 1.3765 1.5562 0.87651 2.1906 0.38117 2.818-6.3689 8.0671-2.288 1.7792-5.456 4.247-7.04 5.484s-3.6332 2.7042-4.5537 3.2606c-2.1266 1.2853-9.9744 4.4001-16.935 6.7214-2.9651 0.98882-7.426 2.5608-9.9132 3.4932-12.823 4.8072-25.932 7.3518-41.863 8.1257-9.8163 0.47686-16.003-0.15546-26.271-2.6851-8.4444-2.0803-17.054-5.2208-22.665-8.2668-8.2585-4.4839-10.617-5.8294-15.557-8.8745-3.0791-1.898-5.6341-3.4153-5.6777-3.3717s-0.79006 2.9483-1.6588 6.4549c-0.86872 3.5066-2.7284 10.552-4.1326 15.656-1.4042 5.104-3.1537 11.584-3.8878 14.4-3.1201 11.97-7.2879 26.837-9.8058 34.979-3.4863 11.274-3.8015 12.104-4.689 12.342-0.81803 0.2193-27.626 0.19904-28.47-0.0215zm4.2463-222.9c-2.2134-1.1562-2.0988-4.6014 0.18481-5.5556 2.3571-0.98486 4.502 0.49304 4.1833 2.8824-0.29564 2.2165-2.5735 3.6105-4.3681 2.6731z"/>
<path id="path3821" d="m54.209 291.07c-0.09412-0.24527 0.33381-1.4486 0.95095-2.6741 4.9542-9.8377 15.816-35.89 18.496-44.364 0.72988-2.3077 2.3969-7.1478 3.7045-10.756 4.6553-12.845 5.405-15.387 8.699-29.495l3.263-13.975-0.80488-1.225c-1.6593-2.5254-3.4884-9.4439-4.3849-16.585-0.5106-4.0673-0.52992-14.124-0.03197-16.64 0.49187-2.4851 5.6647-18.173 7.9662-24.16 4.3515-11.319 6.2347-14.33 14.413-23.041l2-2.1302-3e-3 -11.974c-3e-3 -12.939-0.16065-14.758-1.6079-18.511-2.1925-5.6854-6.3223-10.403-12.95-14.793-6.6304-4.3923-10.52-6.0453-17.568-7.4659-9.6944-1.9542-23.859-1.8007-31.872 0.34534-12.293 3.2919-13.63 4.0056-15.185 8.1074-2.4715 6.5201-2.36 11.847 0.4044 19.323 1.1455 3.0979 1.1913 3.1629 3.4107 4.8478 6.0077 4.5606 16.969 9.8914 24.075 11.709 3.2725 0.83697 8.6168 1.5949 12.574 1.7833 4.2816 0.20383 4.8 0.31508 4.8 1.0302 0 1.413-2.9947 3.0118-6.7378 3.5971-4.1565 0.65005-12.411-0.23845-23.982-2.5813-8.2222-1.6649-14.159-4.1259-21.305-8.8319-5.1776-3.4097-11.974-10.142-15.15-15.007-2.2266-3.4108-2.7479-5.3059-2.731-9.9272 0.012538-3.4224 0.10687-4.0601 0.86748-5.8644 1.0181-2.4149 2.4669-4.4964 5.3861-7.7381 5.3832-5.9778 18.387-16.634 24.523-20.095l1.5297-0.86289 8.6782 0.059c8.7171 0.05927 18.692 0.45598 27.322 1.0867 4.5825 0.33488 4.7431 0.37304 12.96 3.0803 4.576 1.5077 10.174 3.439 12.44 4.2918 4.0557 1.5264 4.68 1.6294 4.68 0.77239 0-0.23768 0.74133-1.913 1.6474-3.7229 1.3507-2.6981 2.1143-3.7624 4.24-5.9096 3.9532-3.9932 7.6018-5.5806 12.811-5.5738 4.9561 0.0065 8.471 1.3518 11.891 4.5514 3.4781 3.2536 5.249 7.8863 5.2311 13.685-0.0136 4.4268-0.27837 5.2356-2.4237 7.4043-2.5784 2.6066-4.4095 3.4757-7.3227 3.4757-1.2543 0-2.9588-0.23122-3.7885-0.51395-1.9106-0.65099-4.837-3.2854-5.3388-4.806-1.2894-3.9071 2.7112-11.32 6.1093-11.32 1.0096 0 2.8596 1.9807 2.8842 3.088l0.0203 0.912 0.31587-0.79154c0.23208-0.58159 0.1792-1.1494-0.19938-2.1407-0.41239-1.0798-0.80986-1.4918-1.991-2.0636-2.6546-1.2851-6.5547-0.63593-8.2445 1.3723-1.2384 1.4717-1.9368 4.2646-1.487 5.9463 0.64837 2.4242 0.4573 4.5295-0.58225 6.4152l-0.93609 1.698 1.4909 2.302c2.9556 4.5635 6.3357 13.201 8.3677 21.382 1.0745 4.3263 2.2652 10.939 2.2652 12.58 0 0.78993 0.1868 1.1219 0.78442 1.3942 0.67527 0.30767 1.0367 0.20549 2.5975-0.7344 5.5467-3.34 18.057-6.7752 27.338-7.5068 13.215-1.0416 30.72-1.3005 43.147-0.63814 7.2565 0.38676 9.2763 0.81317 18.022 3.8047 15.584 5.3307 32.384 13.764 44.345 22.26 4.9627 3.5252 7.042 5.4211 10.115 9.2233 6.5495 8.1026 15.652 23.533 18.297 31.017 0.48206 1.364 0.98989 2.48 1.1285 2.48 0.28741 0 0.92388-1.6931 1.8813-5.0046 1.996-6.9036 7.6055-13.029 15.261-16.665 2.2857-1.0855 2.517-1.1308 4.8612-0.95197 3.424 0.26118 4.8155 0.74009 6.214 2.1386 1.0514 1.0514 1.2072 1.4 1.2072 2.7008 0 1.7897-0.57556 2.9888-2.377 4.9521-0.7417 0.80833-1.8149 2.3107-2.3848 3.3386-1.1542 2.0816-3.7976 5.812-8.1994 11.571-3.9981 5.231-6.3003 8.5953-7.4453 10.88-0.61027 1.2178-1.551 2.4165-2.5721 3.2773-1.5451 1.3027-1.618 1.438-1.8102 3.36-0.11015 1.1015-0.24398 6.3227-0.29743 11.603l-0.0972 9.6-1.323 6.24c-0.72764 3.432-2.1254 9.552-3.1061 13.6-0.98071 4.048-2.7106 11.32-3.8443 16.16s-3.091 12.544-4.3496 17.12c-2.6462 9.6211-2.9584 10.971-3.5889 15.52-0.25616 1.848-1.1922 7.608-2.08 12.8-0.88785 5.192-1.7523 11.066-1.921 13.053-0.16872 1.9871-0.48122 3.8231-0.69445 4.08-0.32609 0.39291-2.1327 0.46714-11.37 0.46714-7.6155 0-11.048-0.10748-11.199-0.35062-0.11919-0.19284 0.42778-1.0208 1.2155-1.84 3.8251-3.9779 6.8123-8.0636 8.8496-12.104 2.1666-4.2968 2.2176-4.5643 5.4747-28.727 0.88512-6.5663 1.0254-8.7469 1.3281-20.64 0.18614-7.3139 0.26642-17.546 0.17841-22.738l-0.16002-9.44-1.3154-6.56c-0.72349-3.608-1.8338-8.2148-2.4673-10.237-3.1406-10.026-8.6997-18.031-16.456-23.697-1.7962-1.3121-4.7309-3.712-6.5217-5.3333-14.004-12.678-20.635-16.549-39.547-23.088-5.2621-1.8194-5.8703-1.9575-10.08-2.2884-4.984-0.39175-30.082-0.48912-35.152-0.13637-6.6163 0.46037-15.798 4.3128-21.387 8.9735-5.9492 4.9611-9.2503 13.534-9.2527 24.029-2e-3 6.7951 2.0814 12.394 6.1087 16.42 2.6538 2.6532 7.8686 6.1198 11.812 7.8525 11.011 4.8379 31.651 10.954 48.671 14.422 4.147 0.845 4.698 0.8798 13.76 0.86896 5.192-6e-3 12.392-0.18047 16-0.38725 8.1968-0.46977 30.633-1.8736 34.133-2.1356 2.3588-0.17662 2.6776-0.13154 3.2719 0.46269 1.6485 1.6485 1.1745 3.2673-1.682 5.7444-2.369 2.0543-12.785 10.071-15.076 11.604-2.0082 1.3432-9.2244 4.2623-16.967 6.8637-2.992 1.0052-7.672 2.655-10.4 3.6662-13.186 4.8878-25.06 7.1746-41.463 7.9849-10.091 0.4985-16.776-0.14299-26.553-2.5479-8.6238-2.1213-18.746-5.9238-23.981-9.0083-1.2336-0.72688-3.0509-1.7226-4.0386-2.2128-2.1279-1.0561-7.72-4.3558-12.538-7.3982-1.8994-1.1995-3.5194-2.1808-3.6-2.1808-0.0806 0-0.14654 0.26515-0.14654 0.58922 0 0.91455-2.5718 11.097-5.3874 21.331-1.4043 5.104-3.1538 11.584-3.8879 14.4-3.1254 11.99-7.2873 26.834-9.7793 34.88-3.3284 10.746-3.8948 12.384-4.3903 12.699-0.21735 0.13806-6.7717 0.25322-14.565 0.25591-11.823 4e-3 -14.198-0.069-14.341-0.44105zm73.642-244.38c0.71889-1.3902 0.43552-1.8034-0.43203-0.62993-0.40067 0.54193-0.6414 1.1262-0.53496 1.2985 0.29555 0.4782 0.41762 0.39381 0.96699-0.66855zm-69.786 21.316c-1.7884-1.7884-0.54934-4.9745 1.9345-4.9745 2.568 0 3.6592 2.95 1.7846 4.8246-1.1935 1.1935-2.6182 1.2509-3.7192 0.14993z"/>
<path id="path3819" d="m54.08 291.04c0-0.0937 0.56911-1.3022 1.2647-2.6857 5.1398-10.222 15.938-36.1 18.624-44.633 0.72675-2.3084 2.3935-7.1492 3.704-10.757 4.4522-12.258 5.1588-14.655 8.3839-28.443 1.7728-7.5794 3.2233-14.086 3.2233-14.459 0-0.3732-0.28685-1.0814-0.63744-1.5737-1.0088-1.4168-2.7878-7.1718-3.5127-11.364-1.0408-6.019-1.4783-14.009-1.036-18.923 0.35097-3.8992 0.53934-4.627 3.5554-13.736 3.3414-10.091 5.7806-16.618 7.999-21.402 1.4389-3.1034 5.2606-9.0786 5.9842-9.3562 0.2464-0.0946 1.3663-1.3445 2.4887-2.7776 1.1224-1.4331 2.6444-3.1443 3.3824-3.8025l1.3416-1.1969-0.12954-12.883c-0.14452-14.373-0.15684-14.468-2.4949-19.339-1.4668-3.0557-4.1474-6.549-7.019-9.1469-2.4296-2.198-8.2058-6.0942-11.454-7.7261-7.0746-3.554-18.766-5.6538-28.868-5.1846-9.0209 0.41906-10.327 0.64364-20.931 3.5993-5.6872 1.5852-7.9129 3.4325-9.2536 7.6802-2.1201 6.7171-1.9472 10.5 0.83019 18.169 0.96998 2.6782 1.1628 2.9619 3.114 4.5814 3.8118 3.1637 12.861 8.064 19.358 10.482 5.2838 1.9667 13.512 3.4911 20.297 3.7601 1.2764 0.05062 2.1037 0.23026 2.1843 0.47428 0.20526 0.62182-1.4302 1.9244-3.3956 2.7044-1.6164 0.64152-2.3503 0.71436-7.0832 0.703-5.6087-0.0134-9.8726-0.53429-19.52-2.3844-5.8541-1.1226-10.364-2.632-15.2-5.0868-9.04-4.589-16.403-10.861-21.342-18.181-2.4388-3.6141-3.1246-5.8415-3.1246-10.148 0-4.3481 0.71536-6.6353 3.199-10.228 3.8145-5.5179 14.221-14.779 24.063-21.414l3.9776-2.6816 3.1734-0.22183c4.6329-0.32386 26.981 0.47207 36.613 1.304 1.8459 0.15942 4.7642 1.0043 12.64 3.6596 5.632 1.8988 10.936 3.7514 11.787 4.1169 2.2154 0.95209 2.6552 0.87647 3.1128-0.53538 1.2138-3.7442 4.3903-8.5307 7.0638-10.644 3.6529-2.8875 6.4952-3.8383 11.447-3.8293 4.3692 0.0079 6.7138 0.67568 9.8493 2.805 2.9152 1.9797 4.5698 4.2092 5.8881 7.9339 0.75988 2.147 1.1682 7.7977 0.78513 10.864-0.21414 1.7139-0.37609 2.0044-2.0426 3.6636-2.398 2.3875-4.2928 3.2826-7.0393 3.3255-1.1719 0.01834-2.793-0.15751-3.6024-0.39076-1.8593-0.5358-4.3665-2.431-5.1368-3.883-1.14-2.1489-0.56382-5.7612 1.4204-8.9048 1.8399-2.9149 4.0662-3.745 5.7813-2.1554 0.68655 0.63628 0.84673 1.0721 0.84673 2.304 0 1.9155 0.64405 1.4773 0.8537-0.58089 0.25656-2.5186-1.4903-4.2687-4.6309-4.6394-3.344-0.39473-6.6058 1.6682-7.4268 4.6971-0.42989 1.586-0.4293 1.5608-0.12964 5.4936 0.19867 2.6074 0.1599 2.8719-0.62728 4.2803-0.46147 0.82565-0.83903 1.6226-0.83903 1.7709 0 0.14834 0.67411 1.3118 1.498 2.5855 2.7869 4.3081 6.3009 13.308 8.2245 21.064 0.96225 3.8799 2.1174 10.444 2.1174 12.032 0 1.1652 0.90958 2.3682 1.7906 2.3682 0.28083 0 0.92709-0.29656 1.4361-0.65903 4.3285-3.0822 17.962-6.9197 27.173-7.6487 18.818-1.4894 46.619-1.3215 53.139 0.32096 1.3306 0.3352 5.151 1.5406 8.4897 2.6787 17.506 5.9675 34.15 14.528 47.399 24.378 4.1168 3.061 6.921 6.2286 11.592 13.095 6.0386 8.8756 12.191 20.042 13.807 25.06 1.1398 3.539 1.5392 3.1906 3.4916-3.0452 1.0924-3.4892 2.9429-6.6756 5.5807-9.6094 1.7079-1.8996 6.3365-5.1505 9.3231-6.5481 1.9946-0.93338 2.269-0.97846 5.0435-0.82852 3.2429 0.17525 4.9279 0.73463 6.1344 2.0364 1.2225 1.3191 1.1368 3.8682-0.20003 5.9515-0.54989 0.85694-1.2551 1.6947-1.5672 1.8617-0.31203 0.16701-1.1029 1.2785-1.7574 2.47-1.3234 2.409-3.7571 5.8476-10.026 14.166-2.3212 3.08-4.8 6.7139-5.5086 8.0752-0.73869 1.4193-1.9099 3.0575-2.7454 3.84-0.80144 0.75062-1.6195 1.6528-1.8178 2.0048-0.23667 0.41999-0.43354 4.5452-0.57269 12l-0.21205 11.36-1.311 6.24c-0.72108 3.432-2.1134 9.552-3.0942 13.6-0.98071 4.048-2.7122 11.32-3.8478 16.16s-3.2353 13.048-4.666 18.24-2.7293 10.581-2.8858 11.976c-0.15647 1.3951-0.9902 6.5791-1.8527 11.52-1.7802 10.198-2.5733 15.595-2.5796 17.555-3e-3 0.74195-0.0912 1.673-0.19732 2.069l-0.19295 0.72h-11.163c-7.7368 0-11.163-0.10541-11.163-0.34346 0-0.1889 1.0944-1.5392 2.432-3.0008 3.5144-3.84 5.8854-7.1308 7.5654-10.5 2.3015-4.6158 2.3942-5.0969 5.6834-29.498 0.8849-6.5647 1.0256-8.7499 1.3288-20.64 0.18653-7.3139 0.26661-17.258 0.17796-22.098l-0.16118-8.8-1.4631-7.2c-0.80472-3.96-1.9148-8.64-2.4668-10.4-1.3002-4.1453-3.6594-9.1317-5.948-12.571-2.4432-3.672-7.3644-8.7143-11.336-11.615-1.7872-1.3054-4.7146-3.6999-6.5054-5.3211-13.824-12.515-20.534-16.383-39.867-22.983-4.6194-1.5769-5.2878-1.7184-9.7329-2.0607-5.7156-0.44013-30.771-0.46655-35.067-0.037-5.9389 0.59379-14.905 4.3038-19.707 8.1539-3.3803 2.7106-5.6076 5.4462-7.3233 8.9944-3.0116 6.2282-4.1798 15.547-2.7352 21.818 2.2963 9.9678 9.078 15.79 25.478 21.874 9.7232 3.607 29.848 9.1215 41.247 11.302 8.5054 1.6272 14.963 1.4985 55.665-1.1086l10.545-0.67545 0.57514 0.71027c0.31633 0.39064 0.57514 1.2262 0.57514 1.8567 0 0.96549-0.26614 1.4018-1.6862 2.7646-1.7084 1.6394-11.775 9.4599-15.342 11.918-2.2351 1.5407-8.7048 4.1755-18.172 7.4008-3.608 1.2292-8.288 2.8808-10.4 3.6702-12.27 4.5868-23.973 6.7868-40.399 7.5947-7.2618 0.35719-13.584 0.0884-19.281-0.8199-10.255-1.6349-25.216-6.7557-32.219-11.028-1.4406-0.87882-2.7461-1.5979-2.9011-1.5979-0.36816 0-7.8843-4.4021-12.522-7.3337-2.0032-1.2664-3.8392-2.2268-4.08-2.1344-0.24085 0.0924-0.43791 0.50721-0.43791 0.92177 0 1.0659-2.0829 9.3798-5.0672 20.226-1.4043 5.104-3.1539 11.584-3.888 14.4-4.3928 16.852-10.062 36.474-13.222 45.76l-0.76213 2.24-14.61 0.0832c-8.0357 0.0458-14.61 7e-3 -14.61-0.0871zm73.924-244.4c0.97402-1.5975 0.77387-2.1716-0.33288-0.95495-0.9457 1.0396-1.2454 1.995-0.62592 1.995 0.17859 0 0.61005-0.468 0.9588-1.04zm-69.636 21.595c-1.1759-0.78514-1.3887-2.8063-0.42468-4.0319 0.53514-0.68033 0.93241-0.84316 2.0571-0.84316 1.5207 0 2.2774 0.52145 2.5954 1.7886 0.24125 0.96121-0.40033 2.6071-1.1786 3.0236-0.67577 0.36166-2.5441 0.40018-3.0492 0.06287z"/>
<path id="path3817" d="m54.493 290.64c0.09331-0.30982 1.4581-3.2993 3.0329-6.6433 5.7583-12.228 14.043-32.355 16.449-39.964 0.72988-2.3077 2.3969-7.1478 3.7045-10.756 4.6553-12.845 5.405-15.387 8.699-29.495l3.263-13.975-0.80488-1.225c-1.6593-2.5254-3.4884-9.4439-4.3849-16.585-0.5106-4.0673-0.52992-14.124-0.03197-16.64 0.49187-2.4851 5.6647-18.173 7.9662-24.16 4.3515-11.319 6.2347-14.33 14.413-23.041l2-2.1302-3e-3 -11.974c-1e-3 -6.7404-0.14772-12.87-0.33485-14.023-0.78699-4.8503-3.7617-10.24-7.9693-14.44-2.4613-2.4567-9.0291-7.0646-12.653-8.8776-7.2168-3.61-18.319-5.5317-29.28-5.0682-9.1177 0.38558-10.799 0.66746-20.434 3.4269-5.8224 1.6675-7.8043 3.1114-9.1524 6.6678-2.4715 6.52-2.3585 11.844 0.41012 19.332 1.1043 2.9864 1.2673 3.233 3.1032 4.6939 5.7225 4.5536 17.393 10.303 24.717 12.176 3.2605 0.83388 8.822 1.6163 13.195 1.8563 3.373 0.18513 3.68 0.2543 3.68 0.82923 0 0.35758-0.47288 0.94592-1.0999 1.3685-4.0454 2.7263-12.665 2.4693-29.14-0.86876-8.223-1.6662-14.16-4.1277-21.305-8.8327-5.161-3.3988-11.675-9.854-14.847-14.714-2.2084-3.3829-2.7302-5.2867-2.7133-9.9001 0.012538-3.4224 0.10687-4.0601 0.86748-5.8644 1.559-3.698 4.9315-7.7433 11.116-13.333 6.2456-5.6454 14.289-11.819 18.473-14.179l1.5297-0.86289 8.6782 0.059c8.7171 0.05927 18.692 0.45598 27.322 1.0867 4.5825 0.33488 4.7431 0.37304 12.96 3.0803 4.576 1.5077 10.181 3.4416 12.456 4.2976 2.2746 0.85604 4.2434 1.5564 4.3752 1.5564s0.41259-0.54 0.62401-1.2c1.4271-4.4552 5.2493-9.719 8.7396-12.036 5.0027-3.3206 12.124-3.7198 17.699-0.99225 5.5147 2.6981 8.7502 8.6847 8.7272 16.148-0.0134 4.3501-0.29454 5.2498-2.2635 7.2436-2.4176 2.4482-4.2928 3.3164-7.1629 3.3164-1.2541 0-2.953-0.22925-3.7753-0.50945-1.9041-0.64879-4.5402-3-5.031-4.4875-0.98483-2.9841 1.4455-9.113 4.1728-10.523 1.3147-0.67988 2.048-0.59932 3.1748 0.34878 1.4083 1.185 1.3635 2.7433-0.13544 4.7063-1.2332 1.6151-1.3439 1.9908-0.6634 2.252 0.58415 0.22416 0.90538-0.18116 1.8598-2.3467 1.217-2.7613 1.2942-3.3828 0.61184-4.9254-1.5471-3.4975-7.9368-3.8213-10.696-0.54203-1.302 1.5473-2.0166 4.3141-1.5576 6.0302 0.64838 2.4242 0.4573 4.5295-0.58224 6.4152l-0.9361 1.698 1.4909 2.302c2.9556 4.5635 6.3357 13.201 8.3677 21.382 1.086 4.3726 2.2652 10.944 2.2652 12.624 0 0.86907 0.18197 1.1741 0.9318 1.5618 0.89006 0.46027 1.0136 0.4326 2.7575-0.61755 5.5595-3.3478 18.059-6.782 27.351-7.5143 13.215-1.0416 30.72-1.3005 43.147-0.63814 7.2565 0.38676 9.2763 0.81317 18.022 3.8047 15.589 5.3322 32.409 13.776 44.341 22.26 5.0299 3.5762 6.7726 5.1592 9.7921 8.8947 6.6906 8.2771 16.242 24.57 18.483 31.528 0.40742 1.265 0.92376 2.2977 1.1488 2.2977 0.55747 0 1.2288-1.384 1.8682-3.8513 2.0378-7.8643 7.316-13.981 15.36-17.802 2.3237-1.1035 2.5463-1.1476 4.8956-0.96834 3.3374 0.25457 4.7973 0.73317 6.0462 1.9821 0.90653 0.90652 1.055 1.2759 1.055 2.6244 0 1.6884-1.0213 3.6726-2.6686 5.1845-0.4613 0.4234-1.1459 1.3594-1.5214 2.08-1.103 2.117-2.7394 4.4763-7.345 10.59-5.6056 7.4411-7.683 10.434-8.884 12.8-0.60302 1.1878-1.5838 2.4369-2.5719 3.2754-1.5298 1.2982-1.6056 1.44-1.7976 3.36-0.11025 1.1025-0.24418 6.3246-0.29763 11.605l-0.0972 9.6-1.323 6.24c-0.72764 3.432-2.1254 9.552-3.1061 13.6-0.98071 4.048-2.7106 11.32-3.8443 16.16s-3.091 12.544-4.3496 17.12c-2.6462 9.6211-2.9584 10.971-3.5889 15.52-0.25616 1.848-1.1922 7.608-2.08 12.8-0.88785 5.192-1.751 11.051-1.9182 13.02-0.16716 1.9689-0.39853 3.7329-0.51416 3.92-0.28572 0.46231-21.932 0.47654-21.932 0.0144 0-0.17916 1.2256-1.7196 2.7237-3.4231 3.3146-3.7694 5.4239-6.7778 7.1444-10.19 2.1868-4.3369 2.2321-4.5741 5.4927-28.763 0.88512-6.5664 1.0254-8.7469 1.3281-20.64 0.18614-7.3139 0.26642-17.546 0.17841-22.738l-0.16002-9.44-1.3154-6.56c-0.72349-3.608-1.8338-8.2148-2.4673-10.237-3.1561-10.075-8.8519-18.229-16.78-24.02-1.7939-1.3104-4.7268-3.709-6.5176-5.3302-14.004-12.678-20.635-16.549-39.547-23.088-5.2621-1.8194-5.8703-1.9575-10.08-2.2884-4.984-0.39175-30.082-0.48912-35.152-0.13637-6.7242 0.46787-15.905 4.3565-21.557 9.1308-6.1251 5.1738-9.4001 13.6-9.4025 24.192-2e-3 6.4212 1.9295 11.923 5.6138 15.994 1.6582 1.8324 6.3655 5.3403 9.6179 7.1673 7.5682 4.2514 34.649 12.546 51.52 15.78 8.5672 1.6423 16.819 1.4815 56.64-1.1035l9.92-0.64396 0.72 0.82992c1.2485 1.4392 0.97101 2.4071-1.2952 4.5175-2.1077 1.9628-12.443 10.001-15.417 11.99-2.0082 1.3432-9.2244 4.2623-16.967 6.8637-2.992 1.0052-7.672 2.655-10.4 3.6662-13.186 4.8878-25.06 7.1746-41.463 7.9849-10.091 0.4985-16.776-0.14299-26.553-2.5479-8.6238-2.1213-18.746-5.9238-23.981-9.0083-1.2336-0.72688-3.0509-1.7226-4.0386-2.2128-2.1279-1.0561-7.72-4.3558-12.538-7.3982-1.8994-1.1995-3.5914-2.1808-3.76-2.1808-0.1686 0-0.30654 0.33466-0.30654 0.74369 0 1.0797-2.1704 9.7425-5.4259 21.656-1.563 5.72-3.8741 14.288-5.1359 19.04-4.7062 17.725-10.961 39.021-12.266 41.76l-0.38097 0.8-14.354 0.0833c-13.575 0.0788-14.345 0.0528-14.184-0.48zm3.6363-222.75c-0.82739-0.91426-0.71518-3.4085 0.18161-4.0367 0.98204-0.68785 2.9004-0.64093 3.5592 0.08705 0.80831 0.89317 0.69307 2.9897-0.21103 3.839-0.93358 0.87706-2.7837 0.93502-3.5298 0.11058z"/>
<path id="path3815" d="m54.808 290.99c-0.27521-0.11145-0.06644-0.80509 0.70091-2.3288 5.039-10.006 15.693-35.619 18.691-44.936 0.8578-2.6654 2.9281-8.6622 4.6006-13.326 1.6725-4.664 3.4152-9.632 3.8725-11.04 0.89613-2.7587 6.9269-28.314 6.9269-29.353 0-0.34541-0.28055-1.022-0.62344-1.5036-2.7988-3.9306-5.6006-19.889-4.9761-28.343 0.32268-4.3682 0.86639-6.5751 3.8565-15.653 4.5015-13.667 7.8008-21.727 10.776-26.327 1.3879-2.1455 4.1193-5.3901 8.1666-9.7009l2-2.1302-2e-3 -12.454c-9.6e-4 -6.8499-0.13327-13.257-0.29388-14.237-0.75161-4.588-3.8864-10.267-7.8525-14.225-2.3035-2.2989-9.0029-6.9733-12.513-8.7307-7.3903-3.7002-17.752-5.4879-29.419-5.0755-7.4982 0.26503-11.131 0.72097-15.993 2.007-10.408 2.7531-12.171 3.7539-13.781 7.8226-1.2763 3.226-1.7365 5.6396-1.7356 9.1037 9.92e-4 3.8379 0.48152 6.2675 2.1083 10.66 1.2153 3.2814 1.2349 3.3097 3.4718 5.0078 6.6108 5.0185 18.466 10.605 25.853 12.183 3.1995 0.6834 9.6367 1.4288 12.387 1.4344 2.9784 6e-3 3.6076 0.3047 2.7168 1.2896-2.4201 2.6759-8.8449 3.3508-18.387 1.9315-16.323-2.4278-23.392-4.7703-32.505-10.772-5.1907-3.4184-11.974-10.142-15.168-15.036-3.7114-5.6853-3.7827-12.835-0.18216-18.258 3.4886-5.2542 14.363-15.225 23.696-21.726 4.583-3.1925 5.0496-3.4108 7.9376-3.7144 4.1118-0.43219 29.394 0.4924 36.542 1.3364 1.826 0.21559 5.4043 1.2593 12.48 3.6399 5.456 1.8357 10.956 3.7684 12.222 4.295 2.4546 1.0207 2.6716 0.97978 3.1361-0.5916 0.13007-0.44 0.89744-2.096 1.7053-3.68 1.1653-2.2849 2.0337-3.4427 4.2027-5.6031 3.8426-3.8274 7.5094-5.4369 12.387-5.4369 8.1348 0 14.64 5.405 16.256 13.507 0.57094 2.863 0.62655 5.536 0.16571 7.966-0.27219 1.4353-0.60313 2.0025-2 3.4282-2.3636 2.4123-3.9984 3.3013-6.4297 3.4964-2.9964 0.24052-5.1828-0.50261-7.3758-2.5069-2.1587-1.9729-2.6116-3.2357-2.0722-5.7778 0.67954-3.2023 2.8894-6.6111 4.6936-7.2401 1.1131-0.38802 2.0349-0.04337 2.931 1.0959 0.89353 1.1359 0.70999 2.2714-0.64333 3.9801-1.0685 1.3491-1.1336 2.3716-0.15084 2.3716 0.46091 0 0.88848-0.60972 1.683-2.4 1.6112-3.6305 1.1069-5.7784-1.6903-7.2-2.4592-1.2497-6.9463-0.48994-8.5812 1.4531-1.1753 1.3967-1.9141 3.9297-1.6634 5.7027 0.63632 4.5007 0.64094 4.4272-0.41344 6.569-0.55068 1.1186-1.0012 2.1196-1.0012 2.2246 0 0.10492 0.67906 1.2392 1.509 2.5207 4.1436 6.3979 8.3111 18.817 10.017 29.85 0.38088 2.464 0.80237 4.696 0.93664 4.96 0.56215 1.1053 1.6951 1.0693 3.6554-0.1161 3.9572-2.3931 10.55-4.5681 19.082-6.2956 7.2708-1.4721 18.886-2.2334 34.027-2.2303 14.749 0.0029 21.846 0.43118 26.453 1.5961 15.79 3.9932 38.378 14.623 52.714 24.806 4.9627 3.5252 7.042 5.4211 10.115 9.2233 6.5394 8.0902 15.892 23.942 18.241 30.917 0.42963 1.2758 0.922 2.4605 1.0942 2.6327 0.54663 0.54663 1.5662-1.188 2.3028-3.9178 1.2834-4.7562 2.8306-7.4947 6.3356-11.214 3.2928-3.4939 9.1024-7.123 12.049-7.5269 2.1575-0.29572 6.0608 0.68392 7.396 1.8562 2.0539 1.8034 1.7976 4.207-0.75402 7.0718-0.82194 0.92283-1.7695 2.1819-2.1056 2.7979-1.1745 2.1524-2.9372 4.6831-7.2438 10.4-5.6425 7.4902-7.6934 10.449-8.8714 12.8-0.61083 1.2188-1.5511 2.4165-2.5748 3.2796-2.0282 1.7099-2.0091 1.5793-2.1139 14.489l-0.0791 9.751-1.3275 6.24c-0.73013 3.432-2.1303 9.552-3.1116 13.6-0.98124 4.048-2.6399 11.012-3.686 15.476-2.3373 9.9743-2.3493 10.022-5.2474 20.844-1.2961 4.84-2.5709 10.384-2.8327 12.32-0.26187 1.936-1.2035 7.768-2.0925 12.96-0.889 5.192-1.7628 11.148-1.9416 13.234-0.1789 2.087-0.49167 3.995-0.69504 4.24-0.30178 0.36363-2.2404 0.44554-10.544 0.44554-5.596 0-10.394-0.0842-10.662-0.18705-0.36573-0.14034 0.18799-0.95516 2.2175-3.2631 3.2978-3.7502 5.4126-6.7685 7.1118-10.15 2.2995-4.576 2.2577-4.36 5.5066-28.462 0.88535-6.568 1.0253-8.7439 1.3274-20.64 0.18575-7.3139 0.26719-17.834 0.18097-23.378l-0.15676-10.08-1.2984-6.431c-0.71415-3.537-1.8278-8.073-2.4748-10.08-3.2776-10.167-8.742-18.018-16.47-23.663-1.7962-1.3121-4.7309-3.712-6.5217-5.3333-11.595-10.497-18.616-15.117-29.467-19.388-6.6085-2.6015-15.451-5.5755-17.28-5.8116-3.3529-0.43292-21.545-0.71232-31.36-0.48162l-10.24 0.2407-3.8686 1.299c-13.412 4.5035-19.993 10.662-22.67 21.215-1.4854 5.8557-1.6309 14.146-0.32489 18.515 0.95531 3.1956 3.033 6.7354 5.2607 8.9625 2.6538 2.6532 7.8686 6.1198 11.812 7.8525 11.189 4.916 32.912 11.382 48.209 14.35 8.5924 1.6669 17.415 1.503 57.416-1.0671 5.0778-0.32625 9.4179-0.46988 9.8007-0.32434 0.37788 0.14367 0.84606 0.71735 1.0404 1.2748 0.46563 1.3357 0.0823 2.0151-2.3115 4.097-2.3468 2.041-12.762 10.061-15.076 11.608-2.0245 1.3541-9.4165 4.3408-17.016 6.8753-2.9651 0.98882-7.426 2.5608-9.9132 3.4932-12.823 4.8072-25.932 7.3518-41.863 8.1257-9.8163 0.47686-16.003-0.15546-26.271-2.6851-8.9547-2.206-18.224-5.6676-23.661-8.836-1.2336-0.7189-3.5475-1.9933-5.1421-2.832-2.4034-1.2641-11.292-6.6086-14.617-8.7888-0.70038-0.45923-0.90514-0.48743-1.0179-0.14019-0.0776 0.23906-0.8606 3.3867-1.7399 6.9947-0.87932 3.608-2.7479 10.736-4.1524 15.84-1.4045 5.104-3.1542 11.584-3.8883 14.4-3.1183 11.963-7.2857 26.83-9.7775 34.88-3.2184 10.398-3.5741 11.423-4.0767 11.742-0.41964 0.26662-27.329 0.31347-27.983 0.0487zm3.5774-223.3c-2.1811-2.1811 0.72148-5.5984 3.1396-3.6963 1.1991 0.94318 1.1758 2.3102-0.06043 3.5464-1.1416 1.1416-2.0436 1.1855-3.0792 0.14993z"/>
<path id="path3813" d="m54.823 290.48c0.09448-0.22 1.4575-3.136 3.0289-6.48 5.797-12.336 14.046-32.385 16.443-39.964 0.72988-2.3077 2.3969-7.1478 3.7045-10.756 4.6553-12.845 5.405-15.387 8.699-29.495l3.263-13.975-0.80488-1.225c-1.6593-2.5254-3.4884-9.4439-4.3849-16.585-0.5106-4.0673-0.52992-14.124-0.03197-16.64 0.49187-2.4851 5.6647-18.173 7.9662-24.16 3.263-8.4877 7.0007-15.482 9.1961-17.209 0.41926-0.32978 1.6174-1.6686 2.6624-2.9752 1.0451-1.3066 2.4975-2.9214 3.2275-3.5885l1.3274-1.2129-3e-3 -12.067c-1e-3 -6.8045-0.1474-12.961-0.33485-14.116-1.1929-7.3528-6.3874-14.316-14.863-19.924-6.6368-4.3916-10.524-6.0431-17.568-7.4628-9.6944-1.9542-23.859-1.8007-31.872 0.34534-6.3131 1.6906-9.7095 2.7332-10.994 3.3749-2.2054 1.1021-3.947 3.0401-4.8334 5.3786-2.4719 6.5213-2.3576 11.836 0.41628 19.347 1.1239 3.0434 1.2538 3.2371 3.2507 4.8485 5.714 4.611 17.434 10.418 24.861 12.317 3.4521 0.88289 8.3949 1.5773 12.833 1.8029 4.582 0.23294 4.9526 0.62354 1.986 2.0935-4.4972 2.2284-12.364 1.8524-28.16-1.346-8.2108-1.6626-14.16-4.127-21.276-8.8126-5.1618-3.3993-11.397-9.5729-14.557-14.413-2.2084-3.3829-2.7302-5.2867-2.7133-9.9001 0.012538-3.4224 0.10687-4.0601 0.86748-5.8644 1.5513-3.6798 4.8094-7.6018 10.854-13.066 6.1885-5.594 14.246-11.776 18.415-14.127l1.5297-0.86289 8.6782 0.059c8.7171 0.05927 18.692 0.45598 27.322 1.0867 4.5825 0.33488 4.7431 0.37304 12.96 3.0803 4.576 1.5077 10.189 3.4445 12.473 4.304 2.2839 0.85957 4.3214 1.4981 4.5278 1.4189s0.55156-0.69408 0.76703-1.3664c0.79425-2.4782 3.2617-6.7896 4.9592-8.6655 3.5562-3.9297 7.8162-5.8397 13.01-5.8331 10.276 0.01308 16.598 6.7291 16.564 17.596-0.0131 4.2615-0.31035 5.2628-2.1032 7.0855-2.9898 3.0395-6.7262 3.9868-10.622 2.693-2.0115-0.66812-4.3712-2.7105-4.8669-4.2125-1.1855-3.5922 2.3298-10.686 5.2954-10.686 0.39024 0 1.089 0.29845 1.5527 0.66322 1.2739 1.0021 1.1635 2.6652-0.30453 4.5878-1.2373 1.6204-1.2582 2.5424-0.0537 2.3714 0.76954-0.10928 2.151-2.4894 2.8158-4.8512 0.29998-1.0658 0.2477-1.4256-0.39424-2.7132-1.8722-3.7551-7.986-4.0815-11.052-0.58997-1.4468 1.6478-2.217 4.4086-1.734 6.2148 0.60643 2.2674 0.45592 4.3999-0.43455 6.1572-0.44 0.8683-0.8 1.7439-0.8 1.9458 0 0.20191 0.65648 1.4204 1.4588 2.7078 2.9088 4.6671 6.1341 13.007 8.116 20.986 1.0894 4.3862 2.2652 10.945 2.2652 12.636 0 0.8813 0.19387 1.2108 1.0014 1.7019l1.0014 0.60898 2.9186-1.5497c7.679-4.0773 19.454-6.8017 31.879-7.3755 3.784-0.17476 7.0789-0.38897 7.322-0.47603 0.83261-0.2982 23.818-0.1596 30.251 0.18241 7.4058 0.39373 9.371 0.80628 18.157 3.8115 15.578 5.3285 32.42 13.782 44.317 22.244 5.0933 3.6227 6.5324 4.9243 9.4897 8.5827 6.662 8.2416 15.523 23.288 18.323 31.113 0.64001 1.7885 1.2225 2.9186 1.5369 2.9818 0.70271 0.1413 1.6394-1.5184 2.267-4.0168 1.967-7.8305 7.0653-13.781 15.06-17.578 2.3237-1.1035 2.5463-1.1476 4.8956-0.96834 3.2375 0.24695 4.7739 0.72459 5.876 1.8267 1.2893 1.2893 1.2735 3.4484-0.0402 5.52-0.52003 0.81998-1.2484 1.6762-1.6186 1.9026-0.37017 0.22648-1.0242 1.1066-1.4534 1.9559-1.1645 2.3042-2.7225 4.5706-7.5175 10.936-5.5619 7.3832-7.6951 10.452-8.7854 12.64-0.50499 1.0133-1.5968 2.4063-2.5732 3.2832-1.6258 1.4601-1.7044 1.606-1.8957 3.52-0.10979 1.0982-0.24334 6.3168-0.29679 11.597l-0.0972 9.6-1.323 6.24c-0.72764 3.432-2.1258 9.552-3.1071 13.6-0.98124 4.048-2.6399 11.012-3.686 15.476-2.3663 10.098-2.4106 10.271-5.16 20.204-1.2424 4.488-2.3889 9.3014-2.548 10.696-0.15903 1.3951-1.0098 6.6511-1.8905 11.68-1.3759 7.8563-1.9092 11.568-2.7503 19.144l-0.15101 1.36h-10.7c-5.8852 0-10.7-0.0746-10.7-0.16574 0-0.0912 1.2256-1.5596 2.7237-3.2631 3.3146-3.7694 5.4239-6.7778 7.1444-10.19 2.1868-4.3369 2.2321-4.5741 5.4927-28.763 0.88512-6.5663 1.0254-8.7469 1.3281-20.64 0.18614-7.3139 0.26642-17.546 0.17841-22.738l-0.16002-9.44-1.3154-6.56c-1.516-7.5601-3.0272-12.648-5.03-16.933-3.1656-6.7742-8.4714-13.213-14.541-17.647-1.7916-1.3087-4.7227-3.7059-6.5135-5.3272-14.004-12.678-20.635-16.549-39.547-23.088-5.2621-1.8194-5.8703-1.9575-10.08-2.2884-4.984-0.39175-30.082-0.48912-35.152-0.13637-3.535 0.24597-8.4592 1.6648-13.069 3.7657-12.321 5.6148-18.207 15.272-18.21 29.877-2e-3 8.9434 3.3062 15.191 10.799 20.393 4.2649 2.9613 5.6243 3.6909 10.764 5.7779 10.89 4.4218 32.071 10.514 45.509 13.09 8.5675 1.6423 16.745 1.4832 56.64-1.1024l9.92-0.64293 0.56 0.6865c1.0483 1.2851 0.73011 2.3097-1.2984 4.1811-2.0184 1.862-12.466 9.9626-15.254 11.828-2.0082 1.3432-9.2244 4.2623-16.967 6.8637-2.992 1.0052-7.672 2.655-10.4 3.6662-13.186 4.8878-25.06 7.1746-41.463 7.9849-10.091 0.4985-16.776-0.14299-26.553-2.5479-8.6238-2.1213-18.746-5.9238-23.981-9.0083-1.2336-0.72688-3.0509-1.7226-4.0386-2.2128-2.1325-1.0583-7.7225-4.3574-12.566-7.4163-1.9152-1.2094-3.6792-2.1233-3.92-2.0309-0.24085 0.0924-0.43791 0.50721-0.43791 0.92177 0 1.0892-2.1602 9.715-5.4259 21.666-1.563 5.72-3.8741 14.288-5.1359 19.04-4.45 16.76-10.228 36.542-12.127 41.52l-0.33569 0.88h-14.122c-11.176 0-14.086-0.0835-13.95-0.4zm3.4122-222.81c-0.62855-0.75736-0.51106-3.0603 0.18198-3.567 0.80995-0.59225 2.848-0.54343 3.3659 0.08062 0.58618 0.70631 0.47163 2.6079-0.20194 3.3522-0.6865 0.75858-2.7588 0.84168-3.346 0.13419z"/>
<path id="path3811" d="m57.909 284.56c6.0267-12.913 13.948-32.235 16.609-40.514 0.85672-2.6654 2.6027-7.7262 3.88-11.246 4.3974-12.119 5.1761-14.763 8.468-28.759l3.302-14.039-1.2104-2.3669c-2.0782-4.0636-3.4975-10.578-4.1737-19.156-0.38061-4.8282-0.23066-10.602 0.35626-13.717 0.41386-2.1965 5.3388-17.118 7.5663-22.923 3.2604-8.4981 7.5403-16.54 9.4185-17.697 0.34184-0.21061 1.4036-1.4018 2.3594-2.6471 0.95586-1.2453 2.4619-2.9311 3.3468-3.7462l1.6089-1.482-3e-3 -11.934c-1e-3 -6.7603-0.14745-12.828-0.33695-13.996-1.256-7.7447-6.4539-14.782-15.18-20.552-4.9991-3.3058-6.3896-4.0232-10.718-5.5299-6.9248-2.4103-15.981-3.6104-24.482-3.2443-9.1016 0.39204-10.989 0.71708-20.744 3.5725-2.0815 0.60924-4.3135 1.3811-4.96 1.7153-1.9484 1.0071-3.7714 3.1641-4.6412 5.4918-2.5594 6.8487-2.3562 12.035 0.79123 20.197 0.91235 2.3658 1.1328 2.6577 3.3206 4.3962 6.4399 5.1175 19.01 11.019 26.896 12.628 3.4956 0.71296 9.7734 1.4681 12.205 1.4681 1.1067 0 2.0122 0.14157 2.0122 0.3146 0 0.60116-3.1665 1.9144-5.4964 2.2796-4.2573 0.6672-12.315-0.16078-24.094-2.4757-7.9924-1.5708-14.193-4.1473-21.383-8.8844-7.4579-4.9139-14.947-13.413-16.592-18.831-0.56673-1.8658-0.64928-2.7811-0.52218-5.7896 0.16434-3.89 0.74961-5.7023 2.8075-8.6933 3.4963-5.0816 13.355-14.023 22.631-20.525 5.8687-4.1139 4.6351-3.8042 14.875-3.7344 8.8927 0.06058 18.793 0.45206 27.454 1.0856 4.55 0.3328 4.7922 0.38947 12.48 2.9201 4.312 1.4194 9.712 3.2973 12 4.173 5.6885 2.1773 5.4505 2.1504 5.925 0.67156 0.78573-2.4489 3.5354-7.3657 5.1024-9.1239 1.985-2.2272 4.5692-3.9694 7.3366-4.9463 2.8488-1.0056 7.9468-1.0637 10.985-0.12521 7.0474 2.1767 10.803 7.9668 10.797 16.645-1e-3 1.672-0.1319 3.5996-0.29057 4.2836-0.35388 1.5254-2.3425 3.6333-4.5728 4.8472-3.8807 2.1121-10.1 0.4756-11.975-3.1512-0.82008-1.5859-0.38918-4.551 1.063-7.3144 1.6449-3.1302 3.4458-4.1661 5.1578-2.967 1.114 0.7803 0.95778 2.5171-0.39802 4.4241-0.87983 1.2375-1.043 1.684-0.78874 2.159 0.40271 0.75246 1.3261 0.7706 1.9765 0.03883 0.62912-0.70782 2.1508-4.322 2.2224-5.2786 0.0969-1.2936-0.73122-3.1124-1.7669-3.8807-2.9745-2.2067-7.2442-1.9083-9.909 0.6926-1.58 1.5421-2.72 4.9549-2.1763 6.5147 0.63204 1.8131 0.43451 4.609-0.44876 6.352-0.44 0.8683-0.8 1.7439-0.8 1.9458 0 0.20191 0.66551 1.4349 1.4789 2.7399 3.0072 4.8248 6.1808 12.922 8.111 20.695 1.0791 4.3451 2.2501 10.895 2.2501 12.586 0 1.2065 1.1589 2.6737 2.1119 2.6737 0.29753 0 2.2841-0.8597 4.4146-1.9105 10.951-5.4011 24.992-7.4233 51.35-7.3957 14.47 0.01517 22.661 0.46799 26.626 1.472 17.119 4.3348 43.058 17.142 57.019 28.154 3.4398 2.7131 9.0627 10.16 14.655 19.409 3.3403 5.5245 8.0908 14.993 8.9629 17.864 0.52127 1.7162 0.82126 2.2478 1.2684 2.2478 0.94079 0 1.7898-1.4066 2.5504-4.2256 2.1623-8.0136 6.6695-13.336 14.714-17.374 2.3296-1.1695 2.4636-1.1968 5.1346-1.0445 3.0189 0.17213 5.4648 1.0269 6.046 2.113 0.6647 1.242 0.41258 3.343-0.59117 4.9257-0.51619 0.81395-1.2115 1.626-1.5452 1.8046-0.33367 0.17857-0.98732 1.0584-1.4526 1.9551-1.2712 2.4503-2.8246 4.7083-7.5987 11.046-5.4899 7.2876-7.6888 10.443-8.7507 12.557-0.46332 0.92253-1.6196 2.4345-2.5694 3.36-1.6608 1.6182-1.7345 1.7624-1.9224 3.7627-0.10749 1.144-0.24418 6.4-0.30375 11.68l-0.10831 9.6-1.3199 6.24c-0.72594 3.432-2.1223 9.552-3.103 13.6-0.98071 4.048-2.7106 11.32-3.8443 16.16s-3.091 12.544-4.3496 17.12c-2.6462 9.6211-2.9584 10.971-3.5889 15.52-0.25616 1.848-1.1933 7.608-2.0824 12.8s-1.7034 10.664-1.8095 12.16-0.25856 3.044-0.33894 3.44l-0.14615 0.72h-20.804l2.6143-2.96c4.9629-5.6192 7.6561-10.132 9.0734-15.202 0.43004-1.5387 1.2134-5.9656 1.7408-9.8376 3.1064-22.807 2.9132-20.742 3.277-35.022 0.18633-7.3139 0.26599-17.402 0.17702-22.418-0.1614-9.0997-0.16468-9.1346-1.4739-15.68-1.4514-7.2564-3.2642-13.392-5.1851-17.55-2.9779-6.4456-8.6214-13.226-14.711-17.674-1.7894-1.307-4.7186-3.7029-6.5094-5.3241-8.5071-7.7015-15.064-12.556-21.199-15.695-3.7925-1.9404-9.9921-4.4071-18.188-7.2365-5.7923-1.9997-6.292-2.1155-10.56-2.4468-4.8725-0.37821-29.85-0.48178-34.54-0.14322-4.6955 0.33895-12.998 3.1673-17.419 5.9341-9.5385 5.9696-13.879 13.914-14.352 26.269-0.15792 4.1237-0.0932 5.068 0.53268 7.7766 0.40951 1.7722 1.2683 4.1937 2.0198 5.6951 2.6355 5.2655 9.3387 10.61 17.679 14.095 10.988 4.5917 33.424 11.119 47.36 13.779 8.548 1.6314 15.881 1.4879 55.991-1.0962 9.7267-0.62663 10.251-0.63158 10.64-0.10023 1.2923 1.7673 0.34385 2.85-8.2309 9.3966-2.8816 2.2-5.9685 4.5617-6.8598 5.2482-0.89132 0.6865-2.7925 1.7939-4.2248 2.4608-3.0346 1.413-12.369 4.9231-16.756 6.301-1.672 0.52514-5.147 1.7496-7.7222 2.721-12.672 4.7802-24.731 7.0891-41.292 7.9065-10.076 0.49728-17.004-0.12962-26.346-2.3838-9.3514-2.2565-17.733-5.4541-25.12-9.5832-1.672-0.93461-4.48-2.5014-6.24-3.4817s-5.4109-3.1608-8.1132-4.8455c-2.7023-1.6847-5.0988-3.0631-5.3258-3.0631-0.47764 0-0.80103 0.70062-0.80103 1.7354 0 1.0365-2.4229 10.69-5.3874 21.465-1.4043 5.104-3.1538 11.584-3.8879 14.4-4.35 16.688-8.9535 32.739-12.367 43.12l-1.1311 3.44h-27.718zm0.31677-217.56c-0.47846-1.2584-0.09149-2.6442 0.80095-2.8681 2.2847-0.57342 3.6036 0.70546 2.6938 2.612-0.37376 0.78318-0.66395 0.94916-1.8039 1.0318-1.2255 0.0888-1.3911 0.01286-1.6908-0.77559z"/>
</g>
</svg>
